<mxfile host="app.diagrams.net" agent="Mozilla/5.0 (Windows NT 10.0; Win64; x64; rv:129.0) Gecko/20100101 Firefox/129.0" version="24.7.7">
  <diagram id="tDPf8CNvzOaNMvIxZvwo" name="Seite-1">
    <mxGraphModel dx="794" dy="339" grid="1" gridSize="10" guides="1" tooltips="1" connect="1" arrows="1" fold="1" page="1" pageScale="1" pageWidth="827" pageHeight="1169" math="0" shadow="0">
      <root>
        <mxCell id="0" />
        <mxCell id="1" parent="0" />
        <mxCell id="lzmcIZGoqttrfyCk76lP-21" style="edgeStyle=orthogonalEdgeStyle;rounded=0;orthogonalLoop=1;jettySize=auto;html=1;exitX=0.5;exitY=1;exitDx=0;exitDy=0;entryX=0.5;entryY=0;entryDx=0;entryDy=0;strokeWidth=4;fontSize=20;curved=1;fillColor=#dae8fc;strokeColor=#6c8ebf;" parent="1" source="lzmcIZGoqttrfyCk76lP-19" target="lzmcIZGoqttrfyCk76lP-20" edge="1">
          <mxGeometry relative="1" as="geometry" />
        </mxCell>
        <mxCell id="X_1ddgbnGcCbuA_kLiaL-2" style="edgeStyle=orthogonalEdgeStyle;rounded=0;orthogonalLoop=1;jettySize=auto;html=1;exitX=0.25;exitY=1;exitDx=0;exitDy=0;curved=1;strokeWidth=4;entryX=0.25;entryY=0;entryDx=0;entryDy=0;fillColor=#0050ef;strokeColor=#001DBC;" parent="1" source="lzmcIZGoqttrfyCk76lP-19" target="lzmcIZGoqttrfyCk76lP-20" edge="1">
          <mxGeometry relative="1" as="geometry" />
        </mxCell>
        <mxCell id="X_1ddgbnGcCbuA_kLiaL-3" style="edgeStyle=orthogonalEdgeStyle;rounded=0;orthogonalLoop=1;jettySize=auto;html=1;exitX=0.75;exitY=1;exitDx=0;exitDy=0;entryX=0.75;entryY=0;entryDx=0;entryDy=0;curved=1;strokeWidth=4;fillColor=#ffe6cc;strokeColor=#d79b00;" parent="1" source="lzmcIZGoqttrfyCk76lP-19" target="lzmcIZGoqttrfyCk76lP-20" edge="1">
          <mxGeometry relative="1" as="geometry" />
        </mxCell>
        <mxCell id="lzmcIZGoqttrfyCk76lP-19" value="&lt;font style=&quot;font-size: 20px;&quot;&gt;Input&lt;/font&gt;" style="rounded=0;whiteSpace=wrap;html=1;fillColor=#CCCCCC;fontColor=#333333;strokeColor=none;" parent="1" vertex="1">
          <mxGeometry x="240" y="40" width="120" height="53" as="geometry" />
        </mxCell>
        <mxCell id="X_1ddgbnGcCbuA_kLiaL-40" style="edgeStyle=orthogonalEdgeStyle;rounded=0;orthogonalLoop=1;jettySize=auto;html=1;exitX=0.5;exitY=1;exitDx=0;exitDy=0;curved=1;fillColor=#dae8fc;strokeColor=#6c8ebf;strokeWidth=4;dashed=1;dashPattern=1 2;entryX=0.5;entryY=0;entryDx=0;entryDy=0;" parent="1" source="lzmcIZGoqttrfyCk76lP-20" target="lzmcIZGoqttrfyCk76lP-22" edge="1">
          <mxGeometry relative="1" as="geometry">
            <Array as="points" />
            <mxPoint x="480" y="430" as="targetPoint" />
          </mxGeometry>
        </mxCell>
        <mxCell id="R8_YthWmbCb2M7noIES2-1" style="edgeStyle=orthogonalEdgeStyle;rounded=0;orthogonalLoop=1;jettySize=auto;html=1;exitX=0.25;exitY=1;exitDx=0;exitDy=0;entryX=0.25;entryY=0;entryDx=0;entryDy=0;strokeWidth=4;fillColor=#0050ef;strokeColor=#001DBC;dashed=1;dashPattern=1 2;" edge="1" parent="1" source="lzmcIZGoqttrfyCk76lP-20" target="lzmcIZGoqttrfyCk76lP-22">
          <mxGeometry relative="1" as="geometry" />
        </mxCell>
        <mxCell id="lzmcIZGoqttrfyCk76lP-20" value="&lt;span style=&quot;font-size: 13px;&quot; lang=&quot;de&quot; class=&quot;ILfuVd&quot;&gt;&lt;span style=&quot;font-size: 20px;&quot; class=&quot;hgKElc&quot;&gt;&lt;font style=&quot;font-size: 20px;&quot;&gt;&lt;b&gt;1&lt;/b&gt;&lt;/font&gt;&lt;/span&gt;&lt;/span&gt;&lt;span style=&quot;font-size: 13px;&quot; lang=&quot;de&quot; class=&quot;ILfuVd&quot;&gt;&lt;span style=&quot;font-size: 20px;&quot; class=&quot;hgKElc&quot;&gt;&lt;font style=&quot;font-size: 20px;&quot;&gt;&lt;b&gt;&lt;br&gt;&lt;/b&gt;&lt;/font&gt;&lt;/span&gt;&lt;/span&gt;" style="rounded=0;whiteSpace=wrap;html=1;fillColor=#CCCCCC;fontColor=#333333;strokeColor=none;" parent="1" vertex="1">
          <mxGeometry x="240" y="140" width="120" height="53" as="geometry" />
        </mxCell>
        <mxCell id="lzmcIZGoqttrfyCk76lP-22" value="&lt;span style=&quot;font-size: 13px;&quot; lang=&quot;de&quot; class=&quot;ILfuVd&quot;&gt;&lt;span style=&quot;font-size: 20px;&quot; class=&quot;hgKElc&quot;&gt;&lt;font style=&quot;font-size: 20px;&quot;&gt;&lt;b&gt;N&lt;/b&gt;&lt;/font&gt;&lt;/span&gt;&lt;/span&gt;&lt;span style=&quot;font-size: 13px;&quot; lang=&quot;de&quot; class=&quot;ILfuVd&quot;&gt;&lt;span style=&quot;font-size: 20px;&quot; class=&quot;hgKElc&quot;&gt;&lt;font style=&quot;font-size: 20px;&quot;&gt;&lt;br&gt;&lt;/font&gt;&lt;/span&gt;&lt;/span&gt;" style="rounded=0;whiteSpace=wrap;html=1;fillColor=#CCCCCC;fontColor=#333333;strokeColor=none;" parent="1" vertex="1">
          <mxGeometry x="240" y="310" width="120" height="53" as="geometry" />
        </mxCell>
        <mxCell id="X_1ddgbnGcCbuA_kLiaL-41" style="edgeStyle=orthogonalEdgeStyle;rounded=0;orthogonalLoop=1;jettySize=auto;html=1;exitX=0.75;exitY=1;exitDx=0;exitDy=0;curved=1;strokeWidth=4;fillColor=#ffe6cc;strokeColor=#d79b00;entryX=0.75;entryY=0;entryDx=0;entryDy=0;dashed=1;dashPattern=1 2;" parent="1" source="lzmcIZGoqttrfyCk76lP-20" target="lzmcIZGoqttrfyCk76lP-22" edge="1">
          <mxGeometry relative="1" as="geometry">
            <mxPoint x="360.03999999999996" y="518.5" as="targetPoint" />
            <Array as="points">
              <mxPoint x="330" y="310" />
              <mxPoint x="330" y="310" />
            </Array>
            <mxPoint x="400" y="251.5" as="sourcePoint" />
          </mxGeometry>
        </mxCell>
      </root>
    </mxGraphModel>
  </diagram>
</mxfile>
